<svg width="459" height="149" viewBox="0 0 459 149" fill="none" xmlns="http://www.w3.org/2000/svg">
<path d="M144.995 63.0092L134.137 55.4484C134.008 55.3639 133.878 55.2543 133.749 55.1697C132.141 54.2814 130.778 53.0072 129.784 51.4618C128.789 49.9163 128.194 48.1481 128.052 46.3156C128.052 42.0825 131.507 39.4262 136.404 39.4262C142.618 39.4262 145.557 42.3411 149.246 42.3411C149.899 42.3763 150.552 42.2734 151.162 42.0393C151.773 41.8053 152.328 41.4454 152.79 40.9828C153.252 40.5201 153.612 39.9652 153.846 39.3542C154.08 38.7432 154.183 38.0897 154.148 37.4363C154.124 36.2825 153.741 35.1647 153.052 34.2391C152.363 33.3134 151.403 32.6263 150.305 32.2732C145.818 30.2213 140.922 29.2242 135.991 29.3583C131.105 29.247 126.315 30.7329 122.349 33.5912C121.657 34.1321 120.993 34.7084 120.36 35.3175L120.276 35.4019C115.592 40.9547 112.227 47.4971 110.432 54.5379L107.389 64.601C101.95 82.3542 93.3595 90.8405 79.951 90.8405C65.2498 90.8405 55.9678 80.6233 55.9678 65.5264C55.9678 50.688 64.9167 40.4308 77.9226 40.0826H78.6335C83.0248 40.0584 87.3667 41.0101 91.346 42.8685C92.7508 43.555 94.2918 43.9169 95.8553 43.9278C96.5623 43.9685 97.2699 43.8588 97.9314 43.6059C98.593 43.3531 99.1935 42.9627 99.6933 42.4607C100.193 41.9588 100.581 41.3566 100.831 40.6937C101.081 40.0309 101.188 39.3225 101.145 38.6153C101.078 37.4388 100.665 36.3085 99.9572 35.3667C99.2494 34.4248 98.2788 33.7137 97.1678 33.3228C91.371 30.5975 85.0275 29.236 78.6235 29.3431C57.683 29.3431 43.2454 44.1816 43.2454 65.7999C43.1884 71.1176 44.1784 76.3946 46.1587 81.3297C45.2679 83.9407 43.5992 86.216 41.3771 87.8497C39.1551 89.4833 36.4862 90.3968 33.7297 90.4674C27.1025 90.4674 22.7423 86.6222 22.7423 77.8774V40.4706H38.2389C38.9778 40.576 39.7308 40.5216 40.4467 40.3106C41.1627 40.0996 41.825 39.737 42.3888 39.2477C42.9526 38.7583 43.4048 38.1534 43.7147 37.474C44.0245 36.7946 44.1849 36.0567 44.1849 35.3099C44.1849 34.5631 44.0245 33.8252 43.7147 33.1458C43.4048 32.4664 42.9526 31.8615 42.3888 31.3721C41.825 30.8827 41.1627 30.5202 40.4467 30.3092C39.7308 30.0982 38.9778 30.0437 38.2389 30.1492H22.7423V16.629C22.7762 15.771 22.6366 14.915 22.3318 14.1124C22.027 13.3097 21.5633 12.5767 20.9686 11.9577C20.3739 11.3386 19.6603 10.8462 18.8708 10.5098C18.0812 10.1733 17.2319 10 16.3737 10C15.5155 10 14.6661 10.1733 13.8765 10.5098C13.087 10.8462 12.3734 11.3386 11.7787 11.9577C11.184 12.5767 10.7203 13.3097 10.4155 14.1124C10.1107 14.915 9.97108 15.771 10.005 16.629V79.3049C10.005 93.8846 18.3573 101.575 32.5215 101.575C35.482 101.581 38.4227 101.092 41.2219 100.128H41.2666C45.8909 98.4293 49.7818 95.1762 52.2738 90.9249C55.8129 94.5342 60.0706 97.3591 64.771 99.2161C69.4713 101.073 74.5094 101.921 79.5582 101.704C85.163 101.828 90.711 100.56 95.7061 98.0135C105.376 92.9795 112.262 82.7671 117.034 67.1279L119.819 57.9902C122.071 60.8197 124.755 63.2758 127.773 65.2677L137.716 72.1568C139.208 73.1517 140.52 74.2112 141.773 75.226C142.577 76.1201 143.194 77.1649 143.591 78.2997C143.988 79.4345 144.156 80.6369 144.085 81.837C144.053 83.2072 143.735 84.5553 143.152 85.7955C142.569 87.0357 141.734 88.1406 140.7 89.0392C139.665 89.9378 138.455 90.6103 137.146 91.0139C135.837 91.4174 134.458 91.5431 133.098 91.3827C126.883 91.3827 121.569 88.2091 118.68 88.2091C118.027 88.174 117.374 88.2766 116.763 88.5106C116.153 88.7447 115.598 89.1048 115.136 89.5675C114.673 90.0301 114.313 90.585 114.08 91.196C113.846 91.807 113.743 92.4603 113.778 93.1136C113.801 94.2675 114.184 95.3852 114.873 96.3109C115.562 97.2365 116.523 97.924 117.621 98.277C122.54 100.489 127.86 101.666 133.252 101.734C139.436 101.972 145.487 99.8932 150.22 95.9044C150.418 95.7348 150.605 95.5537 150.782 95.3621C152.526 93.5785 153.9 91.4675 154.826 89.1506C155.752 86.8338 156.211 84.3568 156.176 81.8619C156.136 73.8931 152.959 68.5804 144.995 63.0092Z" fill="white"/>
<path d="M403.457 56.7861C403.457 55.3203 403.98 54.0988 405.027 53.1217C406.074 52.0747 407.33 51.5512 408.796 51.5512C410.332 51.5512 411.588 52.0747 412.565 53.1217C413.612 54.0988 414.136 55.3203 414.136 56.7861V58.88C415.881 56.5069 418.079 54.6921 420.732 53.4358C423.384 52.1794 426.35 51.5512 429.631 51.5512C435.564 51.5512 440.171 53.0519 443.451 56.0532C447.15 59.3337 449 64.4988 449 71.5484V95.9429C449 97.4087 448.476 98.665 447.43 99.712C446.383 100.689 445.126 101.178 443.66 101.178C442.125 101.178 440.834 100.689 439.787 99.712C438.74 98.665 438.216 97.4087 438.216 95.9429V74.1658C438.216 69.1404 437.204 65.5807 435.18 63.4867C433.365 61.672 430.818 60.7646 427.537 60.7646C422.651 60.7646 419.022 62.8585 416.648 67.0464C414.973 70.1175 414.136 73.8168 414.136 78.1443V95.9429C414.136 97.4087 413.612 98.665 412.565 99.712C411.518 100.689 410.262 101.178 408.796 101.178C407.33 101.178 406.074 100.689 405.027 99.712C403.98 98.665 403.457 97.4087 403.457 95.9429V56.7861Z" fill="white"/>
<path d="M351.899 86.8342C351.899 81.1806 354.97 77.0974 361.113 74.5846C363.695 73.5377 366.592 72.7699 369.802 72.2813C373.083 71.7229 376.887 71.2692 381.215 70.9202V69.6638C381.215 66.5229 380.551 64.1498 379.225 62.5444C377.69 60.7297 375.351 59.8223 372.211 59.8223C369.349 59.8223 366.382 60.4854 363.311 61.8115C363.032 61.9511 362.474 62.1954 361.636 62.5444C360.868 62.8934 360.205 63.1377 359.647 63.2773C359.158 63.4169 358.67 63.4867 358.181 63.4867C357.064 63.4867 356.122 63.1377 355.354 62.4397C354.656 61.6719 354.307 60.7297 354.307 59.6129C354.307 58.3565 354.796 57.3445 355.773 56.5767C356.75 55.7391 358.111 54.9364 359.856 54.1686C364.184 52.4237 368.686 51.5512 373.362 51.5512C379.853 51.5512 384.704 53.3311 387.915 56.8908C390.567 59.8921 391.894 64.1498 391.894 69.6638V95.9429C391.894 97.4087 391.37 98.665 390.323 99.712C389.276 100.689 388.02 101.178 386.554 101.178C385.437 101.178 384.425 100.899 383.518 100.34C382.68 99.8516 382.052 99.1536 381.633 98.2462C379.609 99.363 377.515 100.131 375.351 100.55C373.258 100.968 370.919 101.178 368.337 101.178C363.8 101.178 359.926 99.9214 356.715 97.4087C353.505 94.8261 351.899 91.3013 351.899 86.8342ZM371.687 93.3255C374.968 93.3255 378.143 92.4181 381.215 90.6033V78.3537C375.072 78.7027 370.361 79.5054 367.08 80.7618C363.8 82.0181 362.16 83.9725 362.16 86.6248C362.16 88.7886 363.067 90.4637 364.882 91.6503C366.766 92.7671 369.035 93.3255 371.687 93.3255Z" fill="white"/>
<path d="M344.292 51.5512C345.897 51.5512 347.258 52.1096 348.375 53.2264C349.562 54.3431 350.155 55.7042 350.155 57.3096C350.155 58.0773 349.981 58.9149 349.632 59.8223C349.283 60.7297 349.073 61.2881 349.003 61.4975L333.089 102.644C330.367 109.833 326.807 115.277 322.41 118.976C318.013 122.676 313.232 124.525 308.067 124.525C306.601 124.525 305.345 124.002 304.298 122.955C303.32 121.978 302.832 120.756 302.832 119.29C302.832 117.894 303.32 116.673 304.298 115.626C305.345 114.649 306.601 114.16 308.067 114.16C311.138 114.16 313.72 113.253 315.814 111.438C317.978 109.623 319.863 106.866 321.468 103.167L302.622 61.4975C301.785 59.6827 301.366 58.3565 301.366 57.519C301.366 55.8438 301.959 54.4478 303.146 53.3311C304.332 52.1445 305.728 51.5512 307.334 51.5512C308.8 51.5512 309.986 51.97 310.893 52.8076C311.871 53.5754 312.569 54.4478 312.987 55.425L326.808 89.2423L338.534 56.3673C339.72 53.1566 341.64 51.5512 344.292 51.5512Z" fill="white"/>
<path d="M256.195 86.8342C256.195 81.1806 259.266 77.0974 265.408 74.5846C267.991 73.5377 270.887 72.7699 274.098 72.2813C277.379 71.7229 281.183 71.2692 285.51 70.9202V69.6638C285.51 66.5229 284.847 64.1498 283.521 62.5444C281.985 60.7297 279.647 59.8223 276.506 59.8223C273.644 59.8223 270.678 60.4854 267.607 61.8115C267.328 61.9511 266.769 62.1954 265.932 62.5444C265.164 62.8934 264.501 63.1377 263.942 63.2773C263.454 63.4169 262.965 63.4867 262.477 63.4867C261.36 63.4867 260.418 63.1377 259.65 62.4397C258.952 61.6719 258.603 60.7297 258.603 59.6129C258.603 58.3565 259.091 57.3445 260.069 56.5767C261.046 55.7391 262.407 54.9364 264.152 54.1686C268.479 52.4237 272.981 51.5512 277.658 51.5512C284.149 51.5512 289 53.3311 292.211 56.8908C294.863 59.8921 296.189 64.1498 296.189 69.6638V95.9429C296.189 97.4087 295.666 98.665 294.619 99.712C293.572 100.689 292.315 101.178 290.85 101.178C289.733 101.178 288.721 100.899 287.813 100.34C286.976 99.8516 286.348 99.1536 285.929 98.2462C283.905 99.363 281.811 100.131 279.647 100.55C277.553 100.968 275.215 101.178 272.632 101.178C268.095 101.178 264.222 99.9214 261.011 97.4087C257.8 94.8261 256.195 91.3013 256.195 86.8342ZM275.983 93.3255C279.263 93.3255 282.439 92.4181 285.51 90.6033V78.3537C279.368 78.7027 274.656 79.5054 271.376 80.7618C268.095 82.0181 266.455 83.9725 266.455 86.6248C266.455 88.7886 267.363 90.4637 269.177 91.6503C271.062 92.7671 273.33 93.3255 275.983 93.3255Z" fill="white"/>
<path d="M246.753 94.7912C246.753 96.606 246.09 98.1415 244.763 99.3979C243.507 100.584 241.937 101.178 240.052 101.178C237.749 101.178 235.794 100.166 234.189 98.1415L195.242 48.2009V95.8382C195.242 97.304 194.683 98.5603 193.566 99.6073C192.519 100.654 191.228 101.178 189.693 101.178C188.157 101.178 186.831 100.654 185.714 99.6073C184.597 98.5603 184.039 97.304 184.039 95.8382V34.2761C184.039 32.4614 184.667 30.9607 185.923 29.7741C187.25 28.5178 188.855 27.8896 190.74 27.8896C192.834 27.8896 194.753 28.9366 196.498 31.0305L235.55 80.8665V33.2292C235.55 31.7634 236.074 30.507 237.12 29.4601C238.237 28.4131 239.563 27.8896 241.099 27.8896C242.635 27.8896 243.961 28.4131 245.078 29.4601C246.194 30.507 246.753 31.7634 246.753 33.2292V94.7912Z" fill="white"/>
</svg>
