<svg width="160" height="160" viewBox="0 0 160 160" fill="none" xmlns="http://www.w3.org/2000/svg">
<mask id="mask0_2_21" style="mask-type:alpha" maskUnits="userSpaceOnUse" x="0" y="0" width="160" height="160">
<rect width="160" height="160" fill="#D9D9D9"/>
</mask>
<g mask="url(#mask0_2_21)">
<path d="M63.8958 107.564C53.0825 107.564 43.9309 103.819 36.441 96.3288C28.951 88.8389 25.2061 79.6873 25.2061 68.874C25.2061 58.0607 28.951 48.9091 36.441 41.4191C43.9309 33.9292 53.0825 30.1842 63.8958 30.1842C74.7091 30.1842 83.8608 33.9292 91.3507 41.4191C98.8406 48.9091 102.586 58.0607 102.586 68.874C102.586 73.239 101.891 77.356 100.502 81.225C99.1135 85.0939 97.2286 88.5165 94.8477 91.4926L128.18 124.825C129.272 125.917 129.817 127.305 129.817 128.992C129.817 130.678 129.272 132.067 128.18 133.159C127.089 134.25 125.7 134.795 124.014 134.795C122.327 134.795 120.938 134.25 119.847 133.159L86.5145 99.8258C83.5383 102.207 80.1158 104.092 76.2468 105.48C72.3778 106.869 68.2608 107.564 63.8958 107.564ZM63.8958 95.6592C71.3362 95.6592 77.6605 93.0551 82.8687 87.8469C88.0769 82.6386 90.6811 76.3143 90.6811 68.874C90.6811 61.4336 88.0769 55.1094 82.8687 49.9011C77.6605 44.6929 71.3362 42.0888 63.8958 42.0888C56.4555 42.0888 50.1312 44.6929 44.923 49.9011C39.7147 55.1094 37.1106 61.4336 37.1106 68.874C37.1106 76.3143 39.7147 82.6386 44.923 87.8469C50.1312 93.0551 56.4555 95.6592 63.8958 95.6592Z" fill="white"/>
</g>
</svg>
