<svg width="160" height="160" viewBox="0 0 160 160" fill="none" xmlns="http://www.w3.org/2000/svg">
<mask id="mask0_2_15" style="mask-type:alpha" maskUnits="userSpaceOnUse" x="0" y="0" width="160" height="160">
<rect width="160" height="160" fill="#D9D9D9"/>
</mask>
<g mask="url(#mask0_2_15)">
<path d="M67.0013 93.0003L23.8346 75.5003C22.3902 74.9447 21.3346 74.0836 20.668 72.9169C20.0013 71.7503 19.668 70.5558 19.668 69.3336C19.668 68.1114 20.0291 66.917 20.7513 65.7503C21.4735 64.5836 22.5569 63.7225 24.0013 63.167L126.335 25.167C127.668 24.6114 128.946 24.5003 130.168 24.8336C131.39 25.167 132.446 25.7781 133.335 26.667C134.224 27.5558 134.835 28.6114 135.168 29.8336C135.501 31.0558 135.39 32.3336 134.835 33.667L96.8346 136C96.2791 137.445 95.418 138.528 94.2513 139.25C93.0846 139.973 91.8902 140.334 90.668 140.334C89.4457 140.334 88.2513 140 87.0846 139.334C85.918 138.667 85.0569 137.611 84.5013 136.167L67.0013 93.0003ZM90.3346 115.334L117.335 42.667L44.668 69.667L77.3346 82.667L90.3346 115.334Z" fill="white"/>
</g>
</svg>
