<svg width="160" height="160" viewBox="0 0 160 160" fill="none" xmlns="http://www.w3.org/2000/svg">
<mask id="mask0_2_9" style="mask-type:alpha" maskUnits="userSpaceOnUse" x="0" y="0" width="160" height="160">
<rect width="160" height="160" fill="#D9D9D9"/>
</mask>
<g mask="url(#mask0_2_9)">
<path d="M119.334 54.5833C114.445 46.9722 107.889 41.2777 99.667 37.4999C98.0003 36.7222 96.7781 35.5277 96.0003 33.9166C95.2226 32.3055 95.1114 30.6666 95.667 28.9999C96.3337 27.2222 97.5003 25.9444 99.167 25.1666C100.834 24.3888 102.556 24.3888 104.334 25.1666C115.111 29.9444 123.75 37.2222 130.25 46.9999C136.75 56.7777 140 67.7222 140 79.8333C140 91.9444 136.75 102.889 130.25 112.667C123.75 122.444 115.111 129.722 104.334 134.5C102.556 135.278 100.834 135.278 99.167 134.5C97.5003 133.722 96.3337 132.444 95.667 130.667C95.1114 129 95.2226 127.361 96.0003 125.75C96.7781 124.139 98.0003 122.944 99.667 122.167C107.889 118.389 114.445 112.694 119.334 105.083C124.223 97.4722 126.667 89.0555 126.667 79.8333C126.667 70.611 124.223 62.1944 119.334 54.5833ZM46.667 99.9999H26.667C24.7781 99.9999 23.1948 99.361 21.917 98.0833C20.6392 96.8055 20.0003 95.2222 20.0003 93.3333V66.6666C20.0003 64.7777 20.6392 63.1944 21.917 61.9166C23.1948 60.6388 24.7781 59.9999 26.667 59.9999H46.667L68.667 37.9999C70.7781 35.8888 73.1948 35.4166 75.917 36.5833C78.6392 37.7499 80.0003 39.8333 80.0003 42.8333V117.167C80.0003 120.167 78.6392 122.25 75.917 123.417C73.1948 124.583 70.7781 124.111 68.667 122L46.667 99.9999ZM110 79.9999C110 84.5555 109.028 88.861 107.084 92.9166C105.139 96.9722 102.445 100.389 99.0003 103.167C97.7781 104.055 96.5281 104.25 95.2503 103.75C93.9726 103.25 93.3337 102.222 93.3337 100.667V58.9999C93.3337 57.4444 93.9726 56.4166 95.2503 55.9166C96.5281 55.4166 97.7781 55.611 99.0003 56.4999C102.445 59.2777 105.139 62.7222 107.084 66.8333C109.028 70.9444 110 75.3333 110 79.9999ZM66.667 101V58.9999L52.3337 73.3333H33.3337V86.6666H52.3337L66.667 101ZM13.3337 46.6666C11.4448 46.6666 9.86144 46.0277 8.58366 44.7499C7.30588 43.4722 6.66699 41.8888 6.66699 39.9999V19.9999C6.66699 16.3333 7.97255 13.1944 10.5837 10.5833C13.1948 7.97215 16.3337 6.6666 20.0003 6.6666H40.0003C41.8892 6.6666 43.4726 7.30548 44.7503 8.58326C46.0281 9.86104 46.667 11.4444 46.667 13.3333C46.667 15.2222 46.0281 16.8055 44.7503 18.0833C43.4726 19.361 41.8892 19.9999 40.0003 19.9999H20.0003V39.9999C20.0003 41.8888 19.3614 43.4722 18.0837 44.7499C16.8059 46.0277 15.2225 46.6666 13.3337 46.6666ZM120 153.333C118.111 153.333 116.528 152.694 115.25 151.417C113.973 150.139 113.334 148.555 113.334 146.667C113.334 144.778 113.973 143.194 115.25 141.917C116.528 140.639 118.111 140 120 140H140V120C140 118.111 140.639 116.528 141.917 115.25C143.195 113.972 144.778 113.333 146.667 113.333C148.556 113.333 150.139 113.972 151.417 115.25C152.695 116.528 153.334 118.111 153.334 120V140C153.334 143.667 152.028 146.805 149.417 149.417C146.806 152.028 143.667 153.333 140 153.333H120Z" fill="white"/>
</g>
</svg>
