<svg width="160" height="160" viewBox="0 0 160 160" fill="none" xmlns="http://www.w3.org/2000/svg">
<mask id="mask0_2_24" style="mask-type:alpha" maskUnits="userSpaceOnUse" x="0" y="0" width="160" height="160">
<rect width="160" height="160" fill="#D9D9D9"/>
</mask>
<g mask="url(#mask0_2_24)">
<path d="M20.65 50.25C18.7658 50.25 17.1865 49.6127 15.9119 48.3381C14.6373 47.0635 14 45.4842 14 43.6V23.65C14 21.7658 14.6373 20.1865 15.9119 18.9119C17.1865 17.6373 18.7658 17 20.65 17H40.6C42.4842 17 44.0635 17.6373 45.3381 18.9119C46.6127 20.1865 47.25 21.7658 47.25 23.65C47.25 25.5342 46.6127 27.1135 45.3381 28.3881C44.0635 29.6627 42.4842 30.3 40.6 30.3H27.3V43.6C27.3 45.4842 26.6627 47.0635 25.3881 48.3381C24.1135 49.6127 22.5342 50.25 20.65 50.25ZM20.65 150C18.7658 150 17.1865 149.363 15.9119 148.088C14.6373 146.814 14 145.234 14 143.35V123.4C14 121.516 14.6373 119.936 15.9119 118.662C17.1865 117.387 18.7658 116.75 20.65 116.75C22.5342 116.75 24.1135 117.387 25.3881 118.662C26.6627 119.936 27.3 121.516 27.3 123.4V136.7H40.6C42.4842 136.7 44.0635 137.337 45.3381 138.612C46.6127 139.886 47.25 141.466 47.25 143.35C47.25 145.234 46.6127 146.814 45.3381 148.088C44.0635 149.363 42.4842 150 40.6 150H20.65ZM120.4 150C118.516 150 116.936 149.363 115.662 148.088C114.387 146.814 113.75 145.234 113.75 143.35C113.75 141.466 114.387 139.886 115.662 138.612C116.936 137.337 118.516 136.7 120.4 136.7H133.7V123.4C133.7 121.516 134.337 119.936 135.612 118.662C136.886 117.387 138.466 116.75 140.35 116.75C142.234 116.75 143.814 117.387 145.088 118.662C146.363 119.936 147 121.516 147 123.4V143.35C147 145.234 146.363 146.814 145.088 148.088C143.814 149.363 142.234 150 140.35 150H120.4ZM135.612 48.3381C134.337 47.0635 133.7 45.4842 133.7 43.6V30.3H120.4C118.516 30.3 116.936 29.6627 115.662 28.3881C114.387 27.1135 113.75 25.5342 113.75 23.65C113.75 21.7658 114.387 20.1865 115.662 18.9119C116.936 17.6373 118.516 17 120.4 17H140.35C142.234 17 143.814 17.6373 145.088 18.9119C146.363 20.1865 147 21.7658 147 23.65V43.6C147 45.4842 146.363 47.0635 145.088 48.3381C143.814 49.6127 142.234 50.25 140.35 50.25C138.466 50.25 136.886 49.6127 135.612 48.3381ZM117.075 130.05V120.075H127.05V130.05H117.075ZM117.075 110.1V100.125H127.05V110.1H117.075ZM107.1 120.075V110.1H117.075V120.075H107.1ZM97.125 130.05V120.075H107.1V130.05H97.125ZM87.15 120.075V110.1H97.125V120.075H87.15ZM107.1 100.125V90.15H117.075V100.125H107.1ZM97.125 110.1V100.125H107.1V110.1H97.125ZM87.15 100.125V90.15H97.125V100.125H87.15ZM93.8 76.85C91.9158 76.85 90.3365 76.2127 89.0619 74.9381C87.7873 73.6635 87.15 72.0842 87.15 70.2V43.6C87.15 41.7158 87.7873 40.1365 89.0619 38.8619C90.3365 37.5873 91.9158 36.95 93.8 36.95H120.4C122.284 36.95 123.864 37.5873 125.138 38.8619C126.413 40.1365 127.05 41.7158 127.05 43.6V70.2C127.05 72.0842 126.413 73.6635 125.138 74.9381C123.864 76.2127 122.284 76.85 120.4 76.85H93.8ZM40.6 130.05C38.7158 130.05 37.1365 129.413 35.8619 128.138C34.5873 126.864 33.95 125.284 33.95 123.4V96.8C33.95 94.9158 34.5873 93.3365 35.8619 92.0619C37.1365 90.7873 38.7158 90.15 40.6 90.15H67.2C69.0842 90.15 70.6635 90.7873 71.9381 92.0619C73.2127 93.3365 73.85 94.9158 73.85 96.8V123.4C73.85 125.284 73.2127 126.864 71.9381 128.138C70.6635 129.413 69.0842 130.05 67.2 130.05H40.6ZM40.6 76.85C38.7158 76.85 37.1365 76.2127 35.8619 74.9381C34.5873 73.6635 33.95 72.0842 33.95 70.2V43.6C33.95 41.7158 34.5873 40.1365 35.8619 38.8619C37.1365 37.5873 38.7158 36.95 40.6 36.95H67.2C69.0842 36.95 70.6635 37.5873 71.9381 38.8619C73.2127 40.1365 73.85 41.7158 73.85 43.6V70.2C73.85 72.0842 73.2127 73.6635 71.9381 74.9381C70.6635 76.2127 69.0842 76.85 67.2 76.85H40.6ZM43.925 120.075H63.875V100.125H43.925V120.075ZM43.925 66.875H63.875V46.925H43.925V66.875ZM97.125 66.875H117.075V46.925H97.125V66.875Z" fill="white"/>
</g>
</svg>
