<svg width="160" height="160" viewBox="0 0 160 160" fill="none" xmlns="http://www.w3.org/2000/svg">
<mask id="mask0_2_18" style="mask-type:alpha" maskUnits="userSpaceOnUse" x="0" y="0" width="160" height="160">
<rect width="160" height="160" fill="#D9D9D9"/>
</mask>
<g mask="url(#mask0_2_18)">
<path d="M22.2514 158.161C17.6786 158.161 13.764 156.533 10.5076 153.276C7.25124 150.02 5.62305 146.105 5.62305 141.533V116.59C5.62305 114.234 6.41982 112.26 8.01338 110.666C9.60693 109.073 11.5815 108.276 13.9372 108.276C16.2929 108.276 18.2675 109.073 19.8611 110.666C21.4546 112.26 22.2514 114.234 22.2514 116.59V141.533H47.194C49.5497 141.533 51.5243 142.329 53.1179 143.923C54.7114 145.517 55.5082 147.491 55.5082 149.847C55.5082 152.203 54.7114 154.177 53.1179 155.771C51.5243 157.364 49.5497 158.161 47.194 158.161H22.2514ZM138.65 158.161H113.708C111.352 158.161 109.377 157.364 107.784 155.771C106.19 154.177 105.393 152.203 105.393 149.847C105.393 147.491 106.19 145.517 107.784 143.923C109.377 142.329 111.352 141.533 113.708 141.533H138.65V116.59C138.65 114.234 139.447 112.26 141.04 110.666C142.634 109.073 144.609 108.276 146.964 108.276C149.32 108.276 151.295 109.073 152.888 110.666C154.482 112.26 155.278 114.234 155.278 116.59V141.533C155.278 146.105 153.65 150.02 150.394 153.276C147.137 156.533 143.223 158.161 138.65 158.161ZM5.62305 25.134C5.62305 20.5612 7.25124 16.6466 10.5076 13.3902C13.764 10.1338 17.6786 8.50562 22.2514 8.50562H47.194C49.5497 8.50562 51.5243 9.30239 53.1179 10.8959C54.7114 12.4895 55.5082 14.4641 55.5082 16.8198C55.5082 19.1755 54.7114 21.1501 53.1179 22.7437C51.5243 24.3372 49.5497 25.134 47.194 25.134H22.2514V50.0766C22.2514 52.4322 21.4546 54.4069 19.8611 56.0004C18.2675 57.594 16.2929 58.3907 13.9372 58.3907C11.5815 58.3907 9.60693 57.594 8.01338 56.0004C6.41982 54.4069 5.62305 52.4322 5.62305 50.0766V25.134ZM155.278 25.134V50.0766C155.278 52.4322 154.482 54.4069 152.888 56.0004C151.295 57.594 149.32 58.3907 146.964 58.3907C144.609 58.3907 142.634 57.594 141.04 56.0004C139.447 54.4069 138.65 52.4322 138.65 50.0766V25.134H113.708C111.352 25.134 109.377 24.3372 107.784 22.7437C106.19 21.1501 105.393 19.1755 105.393 16.8198C105.393 14.4641 106.19 12.4895 107.784 10.8959C109.377 9.30239 111.352 8.50562 113.708 8.50562H138.65C143.223 8.50562 147.137 10.1338 150.394 13.3902C153.65 16.6466 155.278 20.5612 155.278 25.134ZM87.8296 130.205C89.8389 128.195 90.8435 125.736 90.8435 122.826C90.8435 119.916 89.8389 117.456 87.8296 115.447C85.8203 113.438 83.3607 112.433 80.4507 112.433C77.5408 112.433 75.0812 113.438 73.0719 115.447C71.0626 117.456 70.058 119.916 70.058 122.826C70.058 125.736 71.0626 128.195 73.0719 130.205C75.0812 132.214 77.5408 133.218 80.4507 133.218C83.3607 133.218 85.8203 132.214 87.8296 130.205ZM80.4507 47.5823C84.0536 47.5823 87.206 48.6909 89.9081 50.908C92.6102 53.1251 93.9613 55.9658 93.9613 59.43C93.9613 62.6171 92.9567 65.4578 90.9474 67.9521C88.9381 70.4463 86.7557 72.7327 84.4 74.8113C80.7972 77.9984 78.0604 81.0123 76.1897 83.853C74.319 86.6936 73.2451 90.1232 72.968 94.1418C72.8294 96.0817 73.5223 97.7792 75.0465 99.2342C76.5708 100.689 78.3722 101.417 80.4507 101.417C82.3907 101.417 84.1575 100.724 85.751 99.3381C87.3446 97.9524 88.2799 96.2203 88.5571 94.1418C88.8342 91.7861 89.6656 89.7075 91.0513 87.9061C92.437 86.1047 94.4463 83.8876 97.0791 81.2548C101.929 76.4048 105.151 72.4902 106.744 69.511C108.338 66.5317 109.135 62.9636 109.135 58.8065C109.135 51.3237 106.433 45.2266 101.028 40.5152C95.6241 35.8039 88.7649 33.4482 80.4507 33.4482C74.7694 33.4482 69.6769 34.73 65.1734 37.2935C60.6699 39.857 57.2403 43.4945 54.8846 48.2059C54.0532 49.8687 54.0186 51.5662 54.7807 53.2983C55.5428 55.0304 56.8246 56.2429 58.626 56.9358C60.4274 57.6286 62.2635 57.6286 64.1342 56.9358C66.0048 56.2429 67.4945 55.1344 68.603 53.6101C70.1273 51.6701 71.8941 50.1805 73.9033 49.1412C75.9126 48.1019 78.0951 47.5823 80.4507 47.5823Z" fill="white"/>
</g>
</svg>
