<svg width="160" height="160" viewBox="0 0 160 160" fill="none" xmlns="http://www.w3.org/2000/svg">
<mask id="mask0_2_12" style="mask-type:alpha" maskUnits="userSpaceOnUse" x="0" y="0" width="160" height="160">
<rect width="160" height="160" fill="#D9D9D9"/>
</mask>
<g mask="url(#mask0_2_12)">
<path d="M42.3331 106.667C35.9998 106.667 30.0275 105.083 24.4164 101.917C18.8053 98.75 14.222 94.3889 10.6664 88.8333C9.66643 87.2778 9.44421 85.6389 9.99977 83.9167C10.5553 82.1944 11.6664 80.8889 13.3331 80C14.9998 79.1111 16.722 78.9444 18.4998 79.5C20.2775 80.0556 21.7775 81.1111 22.9998 82.6667C25.5553 85.8889 28.4998 88.4722 31.8331 90.4167C35.1664 92.3611 38.6109 93.3333 42.1664 93.3333C46.3887 93.3333 49.8609 92.0278 52.5831 89.4167C55.3053 86.8056 56.6664 83.6667 56.6664 80C56.6664 76.3333 55.3609 73.1944 52.7498 70.5833C50.1387 67.9722 46.9998 66.6667 43.3331 66.6667H39.9998C38.1109 66.6667 36.5275 66.0278 35.2498 64.75C33.972 63.4722 33.3331 61.8889 33.3331 60C33.3331 58.1111 33.972 56.5278 35.2498 55.25C36.5275 53.9722 38.1109 53.3333 39.9998 53.3333H43.3331C46.1109 53.3333 48.472 52.3611 50.4164 50.4167C52.3609 48.4722 53.3331 46.1111 53.3331 43.3333C53.3331 40.5556 52.3887 38.1944 50.4998 36.25C48.6109 34.3056 46.2775 33.3333 43.4998 33.3333C41.9442 33.3333 40.4998 33.6389 39.1664 34.25C37.8331 34.8611 36.6109 35.6667 35.4998 36.6667C33.6109 38.3333 31.7775 39.1111 29.9998 39C28.222 38.8889 26.722 38.2222 25.4998 37C24.2775 35.7778 23.5553 34.3611 23.3331 32.75C23.1109 31.1389 23.6664 29.7222 24.9998 28.5C27.5553 25.9444 30.3887 23.8889 33.4998 22.3333C36.6109 20.7778 39.9998 20 43.6664 20C49.9998 20 55.4164 22.25 59.9164 26.75C64.4164 31.25 66.6664 36.7222 66.6664 43.1667C66.6664 46.1667 66.1109 49.0833 64.9998 51.9167C63.8887 54.75 62.2775 57.2778 60.1664 59.5C61.2775 60.6111 62.3053 61.75 63.2498 62.9167C64.1942 64.0833 65.1109 65.3333 65.9998 66.6667H86.6664V33.3333H79.9998C78.1109 33.3333 76.5275 32.6944 75.2498 31.4167C73.972 30.1389 73.3331 28.5556 73.3331 26.6667C73.3331 24.7778 73.972 23.1944 75.2498 21.9167C76.5275 20.6389 78.1109 20 79.9998 20H106.666C108.555 20 110.139 20.6389 111.416 21.9167C112.694 23.1944 113.333 24.7778 113.333 26.6667C113.333 28.5556 112.694 30.1389 111.416 31.4167C110.139 32.6944 108.555 33.3333 106.666 33.3333H99.9998V52.6667L89.8331 80H69.9998V80.6667C69.9998 87.6667 67.4442 93.75 62.3331 98.9167C57.222 104.083 50.5553 106.667 42.3331 106.667ZM100.5 126.333L94.8331 142.5C94.3887 143.722 93.6109 144.722 92.4998 145.5C91.3887 146.278 90.1664 146.667 88.8331 146.667C86.6109 146.667 84.8053 145.75 83.4164 143.917C82.0275 142.083 81.7775 140.056 82.6664 137.833L108 70.8333C108.555 69.6111 109.389 68.6111 110.5 67.8333C111.611 67.0556 112.833 66.6667 114.166 66.6667H119.166C120.5 66.6667 121.722 67.0556 122.833 67.8333C123.944 68.6111 124.778 69.6111 125.333 70.8333L150.666 138C151.555 140.111 151.333 142.083 150 143.917C148.666 145.75 146.889 146.667 144.666 146.667C143.222 146.667 141.972 146.278 140.916 145.5C139.861 144.722 139.055 143.667 138.5 142.333L132.833 126.333H100.5ZM104.666 114.667H128.666L116.666 80.6667L104.666 114.667Z" fill="white"/>
</g>
</svg>
